# xmcd
#
# Track frame offsets:
#	150
#	13460
#	26637
#	45830
#	63545
#	79305
#	102177
#	113892
#	132615
#	149607
#	166492
#	182347
#
# Disc length: 2715 seconds
#
# Revision: 0
# Processed by: cddbd v1.4PL0 Copyright (c) Steve Scherf et al.
# Submitted via: EasyCDDAExtractor 5.0.4.1
#
DISCID=a80a990c
DTITLE=Nelson Lunding and Blues in the Pocket - Whiskey and a Beer to Go
DYEAR=1999
DGENRE=Blues
TTITLE0=Jump Children
TTITLE1=Sweet Tooth
TTITLE2=Caldonia
TTITLE3=Whiskey and a Beer to Go
TTITLE4=Nasty Boogie
TTITLE5=Someday
TTITLE6=Goddess of the Night
TTITLE7=Little Red Rooster
TTITLE8=She's Dynamite
TTITLE9=Sugar Mama
TTITLE10=Cow Cow Blues - Big Chief
TTITLE11=Goodnight Sweetheart
EXTD=
EXTT0=
EXTT1=
EXTT2=
EXTT3=
EXTT4=
EXTT5=
EXTT6=
EXTT7=
EXTT8=
EXTT9=
EXTT10=
EXTT11=
PLAYORDER=
